<?xml version="1.0" standalone="no"?>
<!DOCTYPE svg PUBLIC "-//W3C//DTD SVG 20010904//EN"
 "http://www.w3.org/TR/2001/REC-SVG-20010904/DTD/svg10.dtd">
<svg version="1.0" xmlns="http://www.w3.org/2000/svg"
 width="2828.000000pt" height="2828.000000pt" viewBox="0 0 2828.000000 2828.000000"
 preserveAspectRatio="xMidYMid meet">
<metadata>
Created by potrace 1.14, written by Peter Selinger 2001-2017
</metadata>
<g transform="translate(0.000000,2828.000000) scale(0.100000,-0.100000)"
fill="#000000" stroke="none">
<path d="M13355 25314 c-79 -7 -363 -35 -510 -50 -82 -8 -195 -23 -250 -34
-55 -10 -136 -24 -180 -30 -216 -31 -395 -61 -464 -80 -20 -5 -81 -18 -136
-30 -55 -11 -131 -27 -170 -35 -168 -35 -264 -58 -320 -75 -33 -10 -89 -26
-125 -36 -74 -19 -255 -74 -540 -163 -232 -72 -602 -209 -811 -301 -52 -23
-123 -52 -159 -65 -120 -43 -763 -357 -920 -450 -30 -18 -75 -43 -100 -55 -61
-31 -494 -293 -659 -399 -73 -47 -189 -126 -256 -176 -67 -49 -142 -104 -166
-122 -208 -152 -486 -366 -584 -449 -139 -119 -408 -354 -465 -408 -297 -276
-665 -660 -912 -952 -122 -142 -233 -278 -276 -334 -23 -30 -61 -80 -84 -111
-108 -143 -487 -700 -586 -862 -157 -256 -279 -464 -353 -602 -29 -55 -66
-122 -81 -150 -57 -105 -298 -597 -298 -609 0 -4 -12 -33 -26 -64 -43 -93 -93
-211 -129 -302 -18 -47 -52 -132 -75 -190 -77 -193 -172 -463 -224 -635 -21
-66 -46 -145 -56 -175 -19 -55 -43 -141 -99 -360 -17 -63 -36 -135 -42 -160
-6 -25 -17 -72 -24 -105 -7 -33 -23 -103 -35 -155 -36 -156 -60 -272 -70 -330
-32 -202 -42 -258 -51 -278 -5 -13 -21 -117 -34 -230 -14 -114 -30 -233 -35
-264 -16 -86 -40 -361 -50 -568 -12 -237 -12 -1272 0 -1455 5 -77 14 -214 19
-305 6 -91 18 -203 26 -250 8 -47 19 -134 25 -195 23 -227 30 -281 39 -307 5
-15 21 -98 35 -185 14 -87 32 -189 41 -228 8 -38 19 -95 25 -125 5 -30 15 -75
21 -100 33 -134 47 -196 73 -315 21 -94 37 -155 56 -215 10 -30 26 -84 35
-120 48 -176 253 -812 290 -895 22 -50 24 -54 84 -205 77 -195 122 -304 130
-315 4 -5 25 -50 46 -100 20 -49 45 -103 55 -120 10 -16 33 -66 50 -110 18
-44 36 -84 40 -90 4 -5 56 -104 115 -220 59 -115 114 -217 121 -226 8 -8 14
-20 14 -25 0 -5 28 -56 61 -114 34 -58 75 -130 92 -160 51 -94 128 -220 199
-328 37 -57 68 -106 68 -109 0 -3 13 -22 29 -42 15 -20 52 -74 80 -121 58 -94
65 -104 269 -387 79 -109 164 -223 189 -253 61 -75 118 -146 183 -231 30 -40
85 -104 121 -143 36 -39 115 -127 175 -196 60 -68 132 -147 159 -175 28 -28
111 -114 186 -190 242 -248 472 -462 794 -740 120 -104 163 -138 311 -253 288
-224 325 -251 419 -316 44 -30 118 -83 165 -117 88 -65 139 -98 308 -201 56
-35 132 -82 170 -105 37 -24 89 -55 115 -70 27 -16 103 -60 170 -99 186 -108
197 -114 427 -229 118 -59 231 -118 250 -130 19 -12 64 -32 100 -45 36 -13 74
-29 85 -36 11 -7 43 -21 70 -32 28 -11 93 -40 145 -65 52 -25 147 -66 210 -92
63 -25 124 -50 135 -55 37 -17 139 -50 156 -50 9 0 22 -7 29 -15 6 -8 46 -25
88 -39 43 -13 122 -41 177 -61 130 -47 307 -109 370 -129 28 -9 70 -23 95 -31
25 -8 88 -26 140 -39 53 -13 109 -30 125 -38 17 -9 75 -23 130 -33 54 -9 111
-23 127 -31 15 -8 35 -14 45 -14 10 0 50 -9 88 -19 66 -18 107 -27 230 -51 28
-6 79 -17 115 -24 82 -18 228 -43 300 -52 30 -3 71 -13 89 -20 19 -8 82 -19
140 -24 260 -24 399 -40 436 -50 22 -5 101 -13 175 -16 74 -3 165 -9 202 -15
37 -5 429 -9 880 -9 844 0 1142 10 1298 46 36 8 112 19 170 24 142 13 290 35
320 48 14 6 61 16 105 22 44 6 114 15 155 21 41 5 93 16 115 24 22 7 58 16 80
20 58 8 182 34 240 50 28 7 70 17 95 20 25 4 57 13 71 21 14 7 78 22 142 33
64 11 126 25 138 32 12 6 48 17 78 24 85 20 315 93 376 120 17 7 59 22 95 33
36 12 103 35 150 52 47 17 125 45 174 60 48 16 98 35 110 43 11 8 44 19 71 26
28 7 68 21 90 31 35 16 77 34 285 121 25 11 58 26 73 34 16 8 33 15 37 15 5 0
56 22 112 49 57 27 130 60 163 74 33 14 103 48 155 75 52 27 151 77 220 112
210 107 389 205 510 280 63 39 130 77 148 86 34 15 223 138 298 194 23 16 44
30 48 30 8 0 165 108 381 262 22 16 58 41 80 56 22 15 116 88 209 162 93 74
183 146 201 160 54 41 125 100 216 180 48 41 119 102 159 135 71 59 634 614
780 770 187 198 505 570 610 715 19 26 100 135 180 241 80 107 152 204 160
215 8 12 49 73 91 135 220 330 262 394 319 489 54 90 132 223 149 255 10 17
29 49 44 72 29 46 162 300 269 513 194 390 405 881 499 1160 15 47 40 117 54
155 15 39 35 99 47 135 11 36 35 111 54 167 19 56 45 144 59 195 13 51 34 122
45 158 38 118 162 639 191 800 6 36 17 97 24 135 8 39 28 153 45 255 17 102
37 223 46 270 16 95 27 202 66 635 18 207 18 1445 0 1670 -7 88 -17 216 -22
285 -13 164 -37 383 -50 440 -5 25 -14 89 -20 142 -6 54 -16 112 -21 130 -5
18 -9 47 -9 63 0 17 -7 58 -16 90 -8 33 -19 89 -24 125 -13 94 -55 308 -85
430 -8 30 -33 136 -56 235 -23 99 -56 230 -74 290 -18 61 -41 139 -50 175 -10
36 -33 112 -52 170 -18 58 -43 134 -54 170 -12 36 -29 88 -40 115 -10 28 -39
109 -65 180 -54 155 -119 325 -144 380 -5 11 -27 63 -49 115 -46 113 -149 344
-185 417 -14 29 -26 55 -26 58 0 7 -206 420 -247 495 -17 30 -56 102 -88 160
-31 58 -102 179 -158 270 -55 91 -122 201 -149 245 -51 84 -252 391 -303 463
-35 49 -265 359 -310 416 -126 162 -283 357 -355 441 -243 285 -661 713 -950
974 -101 91 -216 195 -255 231 -79 72 -441 362 -550 440 -38 28 -90 66 -115
85 -248 190 -849 578 -1130 730 -52 28 -161 88 -242 132 -153 84 -589 302
-693 346 -33 14 -94 40 -135 57 -41 18 -111 48 -155 67 -82 35 -107 45 -395
150 -168 62 -650 220 -750 247 -49 13 -111 30 -375 105 -38 11 -124 31 -190
45 -66 15 -147 33 -180 41 -33 8 -76 17 -95 20 -19 3 -64 13 -100 20 -87 20
-260 50 -395 70 -60 9 -149 23 -196 31 -47 8 -130 19 -185 24 -171 16 -314 30
-459 47 -117 14 -267 17 -905 19 -421 0 -783 0 -805 -2z m1525 -725 c96 -5
198 -12 225 -14 28 -3 93 -9 145 -14 52 -5 120 -13 150 -19 30 -6 102 -16 160
-22 206 -21 372 -46 480 -71 25 -6 88 -17 140 -24 52 -8 127 -21 165 -29 89
-21 247 -52 305 -61 25 -4 53 -12 63 -17 22 -11 96 -32 232 -64 55 -12 132
-34 170 -47 39 -13 92 -27 118 -31 27 -4 81 -21 120 -38 40 -17 104 -39 142
-49 68 -19 110 -32 150 -50 48 -21 296 -109 307 -109 6 0 31 -12 55 -26 24
-14 67 -34 96 -44 29 -9 102 -41 163 -69 61 -28 117 -51 124 -51 7 0 42 -16
79 -34 36 -19 160 -81 276 -137 210 -103 319 -163 393 -217 22 -16 62 -37 89
-47 26 -10 59 -28 73 -40 14 -12 46 -32 72 -44 26 -13 96 -54 155 -93 59 -39
122 -77 139 -84 18 -8 36 -19 39 -25 4 -6 37 -30 74 -53 36 -24 79 -55 94 -70
15 -14 32 -26 38 -26 14 0 51 -22 74 -45 33 -32 83 -65 98 -65 8 0 30 -15 49
-32 20 -18 43 -39 52 -46 10 -8 16 -29 16 -57 l0 -45 53 0 c42 0 58 -5 85 -28
18 -16 32 -37 32 -50 0 -18 6 -22 30 -22 17 0 39 -9 50 -20 11 -11 25 -20 30
-20 6 0 10 -7 10 -15 0 -8 9 -15 19 -15 30 0 51 -11 51 -26 0 -8 5 -14 10 -14
6 0 10 -11 10 -25 0 -20 5 -25 25 -25 14 0 25 -4 25 -10 0 -5 9 -10 20 -10 11
0 20 -7 20 -15 0 -8 7 -15 15 -15 8 0 15 -4 15 -9 0 -5 11 -12 25 -15 14 -4
25 -13 25 -22 0 -22 25 -44 50 -44 11 0 24 -8 27 -17 4 -10 12 -22 20 -26 8
-5 13 -29 13 -67 l0 -60 60 0 60 0 0 -80 0 -80 70 0 c56 0 70 -3 70 -15 0 -9
10 -16 28 -16 l27 -2 -27 -4 c-24 -4 -28 -9 -28 -39 0 -27 -4 -34 -20 -34 -17
0 -20 -7 -20 -50 0 -47 -2 -50 -25 -50 -18 0 -25 -5 -25 -20 0 -16 -7 -20 -35
-20 l-35 0 0 -50 c0 -38 -4 -50 -15 -50 -8 0 -15 -4 -15 -10 0 -5 -9 -10 -20
-10 -15 0 -20 -7 -20 -25 0 -20 -5 -25 -25 -25 -22 0 -25 -4 -25 -35 0 -19 -4
-35 -10 -35 -5 0 -10 -11 -10 -25 0 -22 -4 -25 -35 -25 -28 0 -35 -4 -35 -20
0 -17 -7 -20 -40 -20 l-40 0 0 -50 c0 -43 -3 -50 -20 -50 -17 0 -20 -7 -20
-45 0 -33 -4 -45 -15 -45 -8 0 -15 -7 -15 -15 0 -8 -9 -15 -20 -15 -11 0 -20
-4 -20 -10 0 -5 -7 -10 -15 -10 -10 0 -15 -11 -15 -35 0 -19 -4 -35 -10 -35
-5 0 -10 -11 -10 -25 0 -22 -4 -25 -35 -25 -31 0 -35 -3 -35 -25 0 -18 -5 -25
-20 -25 -17 0 -20 7 -20 50 l0 50 -45 0 c-41 0 -45 2 -45 25 0 16 -6 25 -15
25 -8 0 -15 5 -15 10 0 6 -9 10 -20 10 -11 0 -20 5 -20 10 0 6 -11 10 -25 10
-16 0 -25 6 -25 15 0 10 -11 15 -35 15 -19 0 -35 5 -35 10 0 6 -5 10 -11 10
-19 0 -39 28 -39 55 0 37 -17 65 -41 65 -22 0 -49 22 -49 39 0 6 -16 11 -35
11 -19 0 -35 -4 -35 -10 0 -5 -7 -10 -15 -10 -11 0 -15 12 -15 45 l0 45 -45 0
c-38 0 -45 3 -45 20 0 13 -7 20 -20 20 -11 0 -20 4 -20 9 0 5 -13 14 -29 19
-15 5 -40 22 -54 36 -14 14 -47 36 -73 48 -34 16 -50 31 -54 48 -3 14 -14 26
-25 28 -11 2 -30 15 -41 28 -12 13 -30 24 -40 24 -32 0 -94 20 -94 30 0 19
-78 90 -99 90 -11 0 -21 5 -21 10 0 6 -11 10 -25 10 -14 0 -25 6 -25 13 0 21
-35 44 -79 52 -22 4 -41 11 -41 16 0 5 -5 9 -11 9 -6 0 -23 9 -37 21 -15 11
-74 48 -132 81 -58 33 -117 69 -132 79 -15 10 -76 44 -135 75 -59 32 -130 71
-158 88 -27 18 -70 40 -95 50 -25 11 -97 44 -160 73 -63 30 -133 63 -155 73
-22 10 -85 39 -140 64 -55 25 -103 46 -108 46 -4 0 -45 18 -91 40 -46 22 -89
40 -95 40 -7 0 -40 13 -74 28 -34 16 -93 39 -132 51 -38 12 -81 28 -95 35 -14
8 -59 24 -100 36 -41 12 -110 35 -152 51 -42 15 -111 35 -153 44 -42 8 -86 22
-98 30 -28 17 -151 52 -237 66 -35 5 -78 16 -95 24 -48 21 -93 34 -205 55 -58
11 -125 24 -150 30 -102 23 -201 41 -305 55 -60 8 -119 19 -130 24 -23 11
-210 35 -395 52 -68 6 -128 12 -132 15 -8 5 -188 19 -468 36 -417 26 -1267 9
-1385 -27 -28 -8 -70 -15 -94 -15 -25 0 -81 -5 -125 -10 -45 -6 -153 -20 -241
-31 -243 -31 -277 -37 -315 -52 -19 -8 -66 -17 -105 -21 -89 -9 -200 -30 -295
-56 -41 -12 -106 -28 -145 -35 -123 -23 -507 -136 -700 -205 -44 -16 -118 -41
-165 -56 -47 -14 -112 -39 -145 -54 -33 -15 -78 -33 -100 -40 -38 -12 -111
-41 -323 -132 -51 -22 -95 -44 -98 -49 -3 -5 -12 -9 -20 -9 -14 0 -166 -69
-284 -130 -216 -110 -368 -191 -483 -257 -72 -42 -169 -97 -215 -123 -45 -26
-90 -54 -100 -61 -9 -8 -33 -23 -52 -33 -19 -10 -44 -27 -55 -36 -11 -9 -45
-31 -75 -48 -30 -18 -93 -59 -140 -92 -47 -33 -114 -80 -150 -105 -36 -24 -85
-60 -110 -80 -25 -19 -67 -50 -95 -70 -27 -19 -71 -52 -97 -72 -26 -21 -93
-74 -150 -117 -99 -77 -208 -169 -272 -231 -17 -16 -56 -50 -86 -75 -104 -85
-433 -405 -599 -584 -182 -196 -290 -319 -411 -471 -44 -55 -94 -117 -111
-138 -52 -64 -157 -204 -194 -259 -19 -29 -70 -101 -112 -160 -87 -119 -213
-311 -213 -323 0 -4 -19 -35 -43 -69 -24 -33 -65 -99 -92 -146 -26 -47 -57
-101 -68 -120 -11 -19 -29 -51 -40 -70 -84 -145 -260 -495 -342 -680 -25 -58
-57 -125 -70 -150 -13 -25 -35 -75 -48 -110 -22 -58 -96 -243 -148 -373 -10
-26 -19 -54 -19 -63 0 -9 -15 -50 -34 -92 -18 -43 -41 -108 -50 -147 -9 -38
-25 -88 -36 -110 -10 -22 -34 -101 -54 -175 -19 -74 -42 -154 -50 -178 -9 -24
-23 -83 -32 -130 -9 -48 -22 -98 -29 -112 -7 -14 -22 -79 -35 -145 -12 -66
-31 -163 -42 -215 -38 -180 -48 -245 -63 -375 -7 -71 -18 -148 -24 -170 -15
-59 -30 -183 -41 -330 -5 -71 -12 -161 -16 -200 -12 -144 -16 -1021 -5 -1225
21 -383 32 -535 46 -595 7 -33 16 -85 20 -115 4 -30 13 -82 20 -115 7 -33 16
-98 20 -144 8 -97 29 -218 49 -276 8 -22 21 -89 31 -150 16 -108 43 -225 63
-276 6 -14 22 -75 36 -135 15 -60 40 -154 57 -209 63 -206 129 -406 143 -437
8 -18 28 -74 44 -124 17 -50 37 -106 45 -125 9 -19 41 -97 72 -174 31 -77 81
-190 111 -251 30 -62 54 -115 54 -119 0 -13 88 -194 165 -340 27 -49 69 -130
95 -180 26 -49 64 -119 85 -155 21 -36 49 -85 63 -110 14 -25 36 -58 48 -75
12 -16 35 -55 50 -85 16 -30 46 -81 69 -112 22 -31 63 -94 90 -138 28 -45 67
-104 87 -132 21 -29 38 -56 38 -62 0 -6 15 -27 33 -47 17 -19 49 -60 70 -90
20 -29 51 -72 68 -94 16 -22 41 -58 56 -80 14 -22 43 -60 64 -85 45 -52 105
-126 169 -206 45 -56 166 -196 283 -328 34 -38 71 -81 82 -95 11 -15 54 -59
95 -99 41 -39 81 -77 87 -84 7 -7 45 -47 85 -88 72 -74 289 -280 338 -320 45
-37 163 -144 195 -177 17 -18 36 -33 42 -33 6 0 18 -11 27 -25 9 -14 22 -25
30 -25 18 0 42 -30 50 -62 3 -16 13 -28 21 -28 9 0 15 -10 15 -25 0 -22 4 -25
36 -25 56 0 74 -15 74 -60 l0 -40 45 0 c32 0 51 -6 65 -20 11 -11 25 -20 30
-20 6 0 10 -7 10 -15 0 -8 9 -15 20 -15 16 0 20 -7 20 -35 0 -33 2 -35 35 -35
19 0 35 -5 35 -11 0 -7 10 -9 24 -5 31 8 71 -10 91 -40 8 -13 33 -28 55 -34
22 -6 40 -15 40 -20 0 -14 38 -50 52 -50 7 0 22 -11 33 -23 11 -13 27 -26 35
-30 12 -4 11 -6 -2 -6 -10 -1 -18 -8 -18 -16 0 -10 -11 -15 -35 -15 l-35 0 0
-50 0 -50 99 0 c70 0 101 4 104 13 3 6 6 -5 6 -25 l1 -38 60 0 c33 0 60 -4 60
-10 0 -5 16 -10 35 -10 28 0 35 -4 35 -20 0 -11 -4 -20 -10 -20 -5 0 -10 -16
-10 -35 0 -35 0 -35 -45 -35 -41 0 -45 -2 -45 -25 0 -20 -5 -25 -25 -25 -20 0
-25 -5 -25 -25 0 -16 -6 -25 -15 -25 -8 0 -15 -9 -15 -20 0 -11 -4 -20 -10
-20 -5 0 -10 -16 -10 -35 0 -33 -2 -35 -35 -35 -24 0 -35 -5 -35 -15 0 -12
-13 -15 -60 -15 l-60 0 0 -91 c0 -89 -10 -119 -39 -119 -6 0 -11 -16 -11 -35
0 -28 -4 -35 -20 -35 -11 0 -20 -4 -20 -10 0 -5 -11 -10 -25 -10 -23 0 -25 -3
-25 -50 l0 -50 -35 0 c-19 0 -35 -4 -35 -10 0 -5 -7 -10 -15 -10 -10 0 -15
-11 -15 -35 0 -28 -4 -35 -20 -35 -16 0 -20 -7 -20 -35 0 -24 -5 -35 -15 -35
-8 0 -15 -7 -15 -15 0 -8 -9 -15 -20 -15 -15 0 -20 -7 -20 -25 0 -14 -4 -25
-10 -25 -5 0 -10 11 -10 25 0 23 -4 25 -45 25 -33 0 -45 4 -45 15 0 10 -11 15
-35 15 -33 0 -35 2 -35 35 0 24 -5 35 -15 35 -10 0 -15 11 -15 35 l0 35 -82 0
c-92 0 -178 24 -185 51 -3 9 -18 19 -34 23 -20 4 -29 12 -29 25 0 12 -9 21
-27 26 -35 8 -63 38 -63 65 0 15 -6 20 -25 20 -14 0 -25 5 -25 10 0 6 -13 10
-30 10 -23 0 -31 5 -36 25 -3 14 -10 25 -15 25 -5 0 -9 11 -9 25 0 23 -4 25
-41 25 -43 0 -79 14 -79 31 0 15 -26 39 -43 39 -23 0 -67 26 -83 49 -9 13 -31
24 -55 27 -33 6 -44 13 -62 45 -12 22 -30 39 -39 39 -10 0 -18 5 -18 10 0 6
-7 10 -15 10 -8 0 -44 29 -80 65 -36 36 -80 71 -98 79 -18 7 -50 30 -72 50
-22 20 -48 43 -57 51 -51 43 -209 186 -248 225 -25 25 -62 58 -82 73 -21 15
-61 53 -90 85 -29 31 -71 74 -93 96 -168 162 -235 232 -369 381 -83 94 -163
184 -176 201 -14 17 -70 84 -125 149 -55 66 -109 131 -120 146 -11 15 -46 60
-77 100 -32 41 -68 88 -80 104 -12 17 -39 50 -58 75 -37 46 -98 132 -160 225
-19 29 -66 98 -105 154 -38 57 -79 117 -89 134 -11 18 -43 68 -71 112 -29 44
-64 102 -79 128 -14 26 -35 60 -45 75 -10 15 -57 92 -104 172 -76 130 -108
189 -209 380 -16 30 -35 66 -43 80 -9 14 -31 59 -50 100 -19 41 -39 82 -44 90
-5 8 -24 49 -43 90 -19 41 -56 120 -83 175 -26 55 -56 124 -66 154 -10 29 -28
68 -39 86 -11 18 -28 57 -36 87 -9 29 -28 78 -44 109 -15 30 -40 93 -55 140
-15 46 -40 109 -55 139 -15 30 -32 78 -39 105 -6 28 -29 100 -50 160 -53 150
-105 316 -142 460 -17 66 -37 137 -45 158 -8 20 -14 47 -14 60 0 12 -14 76
-31 142 -33 129 -49 199 -68 310 -18 101 -40 203 -57 257 -8 26 -22 109 -30
185 -9 76 -20 167 -24 203 -4 36 -12 83 -18 105 -21 78 -43 326 -61 700 -5
105 -15 243 -21 307 -18 183 -2 866 30 1303 21 287 26 340 32 351 7 10 20 114
38 309 5 55 17 134 25 175 9 41 22 104 30 140 7 36 19 99 26 140 13 79 28 156
54 268 9 37 22 101 30 142 8 41 24 104 35 140 12 36 32 115 45 175 13 61 35
139 48 175 12 36 29 90 35 121 7 32 22 81 33 110 12 30 32 92 45 139 13 47 28
94 34 105 5 11 31 79 56 150 76 216 100 278 118 312 9 18 29 68 45 110 57 156
286 645 416 893 84 159 302 546 351 625 25 39 57 90 71 115 15 25 75 116 133
203 58 88 116 176 130 197 44 67 90 130 252 345 160 213 177 234 328 415 47
56 100 120 118 143 18 23 68 78 110 122 42 44 127 136 189 205 172 193 631
624 863 810 51 41 114 93 140 116 59 51 249 199 315 245 92 64 220 158 255
187 19 16 53 39 76 50 22 11 46 28 54 37 7 9 34 28 59 43 25 14 96 58 156 97
206 133 538 328 750 439 39 20 81 43 95 51 14 8 45 23 70 34 25 11 65 31 90
45 25 14 90 46 145 71 55 26 132 62 170 81 92 45 429 189 527 225 43 15 87 33
98 39 12 6 65 26 118 44 53 19 120 43 147 54 28 11 100 37 160 57 61 20 128
42 150 50 22 7 92 28 155 46 63 18 122 36 131 40 9 5 69 20 133 34 65 14 125
29 134 34 10 5 72 21 137 35 158 35 188 42 265 60 36 9 108 23 160 31 153 23
213 34 240 44 29 11 187 35 340 51 58 6 130 15 160 20 30 5 83 12 117 15 34 3
93 12 130 20 44 8 219 18 488 25 231 7 422 14 424 16 8 7 739 -6 911 -17z
m-620 -1957 c58 -7 150 -17 205 -23 55 -6 118 -14 140 -19 62 -13 190 -38 290
-56 50 -9 128 -29 175 -46 47 -16 114 -36 150 -44 35 -9 94 -28 131 -44 36
-15 81 -31 100 -35 19 -4 71 -25 117 -46 45 -21 85 -39 89 -39 4 0 41 -17 82
-38 42 -21 92 -45 111 -52 19 -8 51 -24 70 -37 19 -12 51 -28 70 -34 19 -7 49
-22 65 -34 17 -13 53 -34 80 -47 28 -13 73 -38 100 -55 28 -17 72 -43 98 -59
118 -70 190 -118 307 -203 256 -187 343 -341 274 -487 -23 -48 -109 -109 -172
-123 -70 -15 -118 -6 -229 40 -51 22 -96 39 -100 39 -4 0 -80 30 -168 66 -192
79 -386 150 -475 175 -36 10 -94 29 -130 43 -35 15 -117 37 -182 51 -65 14
-126 29 -136 34 -23 12 -131 38 -212 51 -81 13 -178 32 -297 58 -51 11 -139
23 -195 27 -57 4 -121 11 -143 17 -22 5 -87 13 -145 18 -58 5 -143 14 -190 19
-115 15 -701 4 -838 -15 -56 -8 -127 -14 -157 -14 -29 0 -65 -4 -78 -9 -14 -6
-72 -15 -129 -21 -141 -14 -485 -86 -668 -140 -52 -15 -140 -39 -194 -54 -55
-15 -122 -38 -150 -51 -28 -13 -80 -32 -116 -40 -36 -9 -101 -31 -145 -50 -44
-18 -105 -40 -135 -50 -30 -9 -71 -26 -90 -39 -19 -12 -55 -28 -80 -35 -59
-17 -196 -73 -290 -119 -67 -32 -85 -37 -172 -40 -90 -4 -99 -3 -148 24 -29
16 -69 50 -92 78 -39 50 -40 52 -36 123 2 55 8 77 24 95 11 13 33 44 48 70 29
52 203 232 263 273 21 14 72 50 113 79 108 77 387 244 515 308 162 81 433 197
555 237 36 12 79 29 97 37 17 8 76 26 130 40 54 14 130 36 168 49 39 13 115
31 170 40 55 9 125 23 155 30 76 19 158 32 275 45 55 6 134 16 175 22 41 6
104 14 140 18 100 11 692 5 810 -8z m-355 -1443 c55 -5 170 -14 255 -20 298
-18 374 -27 440 -49 36 -12 105 -31 155 -42 142 -31 507 -163 614 -223 14 -8
51 -25 81 -38 30 -13 89 -43 130 -67 41 -24 111 -63 155 -88 303 -172 502
-336 544 -447 36 -96 9 -162 -88 -214 -90 -48 -100 -46 -386 71 -185 75 -360
140 -420 156 -22 6 -80 25 -130 42 -49 17 -119 38 -155 45 -36 7 -108 24 -161
39 -53 14 -163 37 -245 51 -82 14 -157 28 -167 31 -19 6 -127 19 -287 35 -224
23 -868 9 -1085 -22 -134 -20 -420 -80 -530 -111 -38 -11 -115 -33 -170 -48
-55 -16 -121 -37 -146 -48 -25 -11 -81 -30 -125 -41 -43 -12 -97 -31 -119 -43
-22 -11 -74 -32 -115 -45 -41 -14 -97 -38 -125 -53 -27 -15 -63 -31 -80 -34
-16 -4 -64 -24 -105 -44 -67 -33 -84 -37 -151 -37 -70 0 -81 3 -120 31 -102
74 -104 169 -6 304 69 96 158 172 332 286 92 61 143 91 280 170 56 32 263 129
298 140 12 3 60 23 107 44 85 38 335 121 420 139 135 30 188 43 220 56 38 16
242 42 440 56 69 5 159 13 200 18 105 12 131 12 245 0z m190 -1309 c305 -36
294 -34 510 -98 199 -60 496 -199 685 -321 31 -20 62 -40 71 -46 127 -82 191
-141 223 -209 25 -54 20 -82 -23 -129 -36 -39 -42 -41 -92 -41 -38 0 -69 8
-104 26 -28 14 -70 31 -95 38 -25 7 -66 23 -93 36 -70 36 -250 97 -427 145
-197 53 -250 64 -385 79 -60 7 -123 17 -140 22 -41 13 -283 32 -425 32 -142 1
-409 -21 -470 -39 -25 -8 -76 -16 -115 -20 -89 -8 -172 -27 -310 -69 -60 -19
-139 -43 -175 -54 -102 -32 -294 -105 -425 -163 -98 -44 -130 -54 -177 -54
-69 0 -109 25 -122 78 -26 100 81 224 339 394 59 39 300 161 375 190 36 13 70
28 75 33 10 8 70 27 230 75 123 36 154 43 275 61 58 9 143 21 190 29 101 16
490 19 605 5z m-171 -1001 c130 -55 216 -148 277 -302 24 -60 28 -87 29 -163
0 -75 3 -96 19 -115 23 -28 -155 -26 1506 -21 679 2 1123 -1 1195 -7 150 -13
305 -43 366 -71 27 -12 73 -31 103 -41 85 -30 269 -158 344 -239 92 -99 176
-242 220 -372 29 -85 40 -141 54 -268 16 -148 16 -171 1 -308 -24 -221 -93
-400 -220 -568 -76 -102 -301 -265 -412 -300 -22 -7 -70 -24 -106 -39 -131
-52 -170 -57 -570 -65 -206 -5 -613 -9 -905 -9 -291 -1 -683 -4 -870 -8 l-339
-6 -24 -25 -25 -24 7 -1086 c10 -1577 11 -5274 2 -5714 -8 -360 -9 -378 -27
-378 -14 0 -19 -7 -19 -25 0 -20 -5 -25 -25 -25 -18 0 -25 -5 -25 -20 0 -15
-7 -20 -25 -20 -16 0 -25 -6 -25 -15 0 -11 -12 -15 -45 -15 -25 0 -45 -4 -45
-10 0 -5 -11 -10 -25 -10 -20 0 -25 -5 -25 -25 0 -22 -4 -25 -35 -25 -19 0
-35 -4 -35 -10 0 -5 -11 -10 -25 -10 -20 0 -25 -5 -25 -25 0 -24 -3 -25 -60
-25 -57 0 -60 -1 -60 -25 0 -20 -5 -25 -25 -25 -14 0 -25 -4 -25 -10 0 -5 -9
-10 -20 -10 -11 0 -20 -4 -20 -10 0 -5 -22 -10 -50 -10 -47 0 -50 -2 -50 -25
0 -14 -4 -25 -10 -25 -5 0 -10 -11 -10 -25 0 -24 -3 -25 -60 -25 l-60 0 0 -35
0 -35 -60 0 c-57 0 -60 -1 -60 -25 0 -23 -4 -25 -45 -25 -38 0 -45 -3 -45 -20
0 -15 -7 -20 -25 -20 -20 0 -25 -5 -25 -25 0 -22 -4 -25 -35 -25 -31 0 -35 -3
-35 -25 0 -24 -3 -25 -60 -25 -33 0 -60 -4 -60 -10 0 -5 -11 -10 -25 -10 -16
0 -25 -6 -25 -15 0 -8 -9 -15 -20 -15 -13 0 -20 -7 -20 -20 0 -15 -7 -20 -25
-20 -16 0 -25 -6 -25 -15 0 -10 -11 -15 -35 -15 -28 0 -35 -4 -35 -20 0 -18
-7 -20 -60 -20 -47 0 -60 -3 -60 -15 0 -10 -11 -15 -35 -15 -19 0 -35 -4 -35
-10 0 -5 -11 -10 -25 -10 -20 0 -25 -5 -25 -25 0 -20 -5 -25 -25 -25 -14 0
-25 -4 -25 -10 0 -5 -9 -10 -20 -10 -11 0 -20 -7 -20 -15 0 -8 -7 -15 -15 -15
-10 0 -15 -11 -15 -35 l0 -35 -80 0 c-47 0 -80 -4 -80 -10 0 -5 -7 -10 -15
-10 -8 0 -15 -4 -15 -10 0 -5 -20 -10 -45 -10 -45 0 -45 0 -45 -35 0 -19 -4
-35 -10 -35 -5 0 -10 -7 -10 -15 0 -12 -15 -15 -75 -15 l-75 0 0 -45 0 -45
-65 0 -65 0 0 150 c0 93 -4 150 -10 150 -6 0 -10 138 -10 395 0 217 -4 395 -9
395 -7 0 -12 132 -26 755 -2 94 -6 490 -9 880 -4 391 -8 940 -11 1220 -7 582
-21 2334 -31 3630 -7 943 -7 938 -57 950 -13 4 -549 2 -1191 -3 -756 -7 -1191
-7 -1234 0 -301 43 -528 141 -710 303 -58 51 -158 187 -200 269 -90 177 -151
524 -123 695 7 42 15 92 18 111 10 70 67 247 100 314 111 221 320 402 573 496
118 44 130 48 260 70 168 30 523 38 1995 45 699 3 1374 8 1502 11 284 8 265
-4 274 163 6 94 12 127 32 172 63 140 128 211 247 270 78 39 137 49 256 44 74
-3 104 -9 168 -36z"/>
<path d="M20600 21565 l0 -55 55 0 55 0 0 55 0 55 -55 0 -55 0 0 -55z"/>
<path d="M8542 6850 c0 -19 2 -27 5 -17 2 9 2 25 0 35 -3 9 -5 1 -5 -18z"/>
<path d="M8920 6120 l0 -50 55 0 55 0 0 50 0 50 -55 0 -55 0 0 -50z"/>
<path d="M12750 8045 l0 -65 75 0 75 0 0 65 0 65 -75 0 -75 0 0 -65z"/>
<path d="M12440 7960 c0 -5 -7 -10 -16 -10 -31 0 -10 -35 24 -38 30 -3 32 -1
32 27 0 24 -4 31 -20 31 -11 0 -20 -4 -20 -10z"/>
<path d="M12210 7790 l0 -40 50 0 50 0 0 40 0 40 -50 0 -50 0 0 -40z"/>
</g>
</svg>
